<svg class="border shadow-md" viewBox="0 0 589.0133333333333 441.76" style="width: 589.013px; height: 441.76px;" xmlns="http://www.w3.org/2000/svg" preserveAspectRatio="none"><rect class="bg" id="bg" x="0" y="0" width="589.0133333333333" height="441.76" fill="#ffffff"></rect><g transform="translate(-276.1 165.65999999999997) scale(1)"><path d="M471.5,380.5Q396,485,281.5,474.5Q167,464,91.5,370Q16,276,92.5,183Q169,90,277.5,87.5Q386,85,466.5,180.5Q547,276,471.5,380.5Z" fill="#4f46e5" stroke="none" stroke-width="10"></path></g><g transform="translate(312.9133333333333 -276.1) scale(1)"><path d="M436,380Q396,484,275.5,485Q155,486,95.5,381Q36,276,91,163Q146,50,269.5,62Q393,74,434.5,175Q476,276,436,380Z" fill="#4f46e5" stroke="none" stroke-width="10"></path></g></svg>