<svg class="border shadow-md" viewBox="0 0 445.28000000000003 445.28000000000003" style="width: 445.28px; height: 445.28px;" xmlns="http://www.w3.org/2000/svg" preserveAspectRatio="none"><rect class="bg" id="bg" x="0" y="0" width="445.28000000000003" height="445.28000000000003" fill="#ffffff"></rect><path d="M 0 -34.252307692307696 L 0 -34.25
                L 37.11 -12.25
                L 111.32000000000001 -34.25 L 111.32000000000001 -34.25
                L 171.32 -9.25
                L 222.64000000000001 -34.25 L 222.64000000000001 -34.25
                L 268.64 -10.25
                L 333.96000000000004 -34.25 L 333.96000000000004 -34.25
                L 371.07 -12.25
                L 445.28000000000003 -34.25 L 445.28000000000003 -34.25
                L 482.39 -17.13
                L 556.6 -34.25  V 445.28 H 0 V -34.25 Z" fill="#F95164"></path><path d="M 0 0 L 0 0.00
                L 62.00 20.00
                L 111.32000000000001 0.00 L 111.32000000000001 0.00
                L 148.43 17.13
                L 222.64000000000001 0.00 L 222.64000000000001 0.00
                L 270.64 28.00
                L 333.96000000000004 0.00 L 333.96000000000004 0.00
                L 371.07 28.00
                L 445.28000000000003 0.00 L 445.28000000000003 0.00
                L 482.39 17.13
                L 556.6 0.00  V 445.28 H 0 V 0.00 Z" fill="#e74d62"></path><path d="M 0 34.252307692307696 L 0 34.25
                L 37.11 64.25
                L 111.32000000000001 34.25 L 111.32000000000001 34.25
                L 186.32 66.25
                L 222.64000000000001 34.25 L 222.64000000000001 34.25
                L 259.75 51.38
                L 333.96000000000004 34.25 L 333.96000000000004 34.25
                L 371.07 51.38
                L 445.28000000000003 34.25 L 445.28000000000003 34.25
                L 482.39 66.25
                L 556.6 34.25  V 445.28 H 0 V 34.25 Z" fill="#d54960"></path><path d="M 0 68.50461538461539 L 0 68.50
                L 37.11 87.50
                L 111.32000000000001 68.50 L 111.32000000000001 68.50
                L 158.32 85.63
                L 222.64000000000001 68.50 L 222.64000000000001 68.50
                L 259.75 85.63
                L 333.96000000000004 68.50 L 333.96000000000004 68.50
                L 409.96 91.50
                L 445.28000000000003 68.50 L 445.28000000000003 68.50
                L 482.39 85.63
                L 556.6 68.50  V 445.28 H 0 V 68.50 Z" fill="#c3455e"></path><path d="M 0 102.75692307692309 L 0 102.76
                L 43.00 124.76
                L 111.32000000000001 102.76 L 111.32000000000001 102.76
                L 148.43 121.76
                L 222.64000000000001 102.76 L 222.64000000000001 102.76
                L 288.64 119.88
                L 333.96000000000004 102.76 L 333.96000000000004 102.76
                L 407.96 133.76
                L 445.28000000000003 102.76 L 445.28000000000003 102.76
                L 482.39 119.88
                L 556.6 102.76  V 445.28 H 0 V 102.76 Z" fill="#b1415c"></path><path d="M 0 137.00923076923078 L 0 137.01
                L 37.11 154.14
                L 111.32000000000001 137.01 L 111.32000000000001 137.01
                L 177.32 154.14
                L 222.64000000000001 137.01 L 222.64000000000001 137.01
                L 276.64 163.01
                L 333.96000000000004 137.01 L 333.96000000000004 137.01
                L 371.07 154.14
                L 445.28000000000003 137.01 L 445.28000000000003 137.01
                L 517.28 154.14
                L 556.6 137.01  V 445.28 H 0 V 137.01 Z" fill="#9f3d5a"></path><path d="M 0 171.26153846153846 L 0 171.26
                L 37.11 190.26
                L 111.32000000000001 171.26 L 111.32000000000001 171.26
                L 160.32 188.39
                L 222.64000000000001 171.26 L 222.64000000000001 171.26
                L 259.75 202.26
                L 333.96000000000004 171.26 L 333.96000000000004 171.26
                L 407.96 190.26
                L 445.28000000000003 171.26 L 445.28000000000003 171.26
                L 482.39 204.26
                L 556.6 171.26  V 445.28 H 0 V 171.26 Z" fill="#8d3958"></path><path d="M 0 205.51384615384617 L 0 205.51
                L 40.00 222.64
                L 111.32000000000001 205.51 L 111.32000000000001 205.51
                L 148.43 235.51
                L 222.64000000000001 205.51 L 222.64000000000001 205.51
                L 260.64 222.64
                L 333.96000000000004 205.51 L 333.96000000000004 205.51
                L 373.96 234.51
                L 445.28000000000003 205.51 L 445.28000000000003 205.51
                L 498.28 235.51
                L 556.6 205.51  V 445.28 H 0 V 205.51 Z" fill="#7b3556"></path><path d="M 0 239.76615384615388 L 0 239.77
                L 40.00 259.77
                L 111.32000000000001 239.77 L 111.32000000000001 239.77
                L 163.32 256.89
                L 222.64000000000001 239.77 L 222.64000000000001 239.77
                L 259.75 261.77
                L 333.96000000000004 239.77 L 333.96000000000004 239.77
                L 371.07 267.77
                L 445.28000000000003 239.77 L 445.28000000000003 239.77
                L 502.28 272.77
                L 556.6 239.77  V 445.28 H 0 V 239.77 Z" fill="#693154"></path><path d="M 0 274.01846153846157 L 0 274.02
                L 37.11 305.02
                L 111.32000000000001 274.02 L 111.32000000000001 274.02
                L 185.32 306.02
                L 222.64000000000001 274.02 L 222.64000000000001 274.02
                L 259.75 299.02
                L 333.96000000000004 274.02 L 333.96000000000004 274.02
                L 371.07 304.02
                L 445.28000000000003 274.02 L 445.28000000000003 274.02
                L 486.28 291.14
                L 556.6 274.02  V 445.28 H 0 V 274.02 Z" fill="#572d52"></path><path d="M 0 308.27076923076925 L 0 308.27
                L 42.00 337.27
                L 111.32000000000001 308.27 L 111.32000000000001 308.27
                L 149.32 341.27
                L 222.64000000000001 308.27 L 222.64000000000001 308.27
                L 259.75 325.40
                L 333.96000000000004 308.27 L 333.96000000000004 308.27
                L 371.07 325.40
                L 445.28000000000003 308.27 L 445.28000000000003 308.27
                L 510.28 325.40
                L 556.6 308.27  V 445.28 H 0 V 308.27 Z" fill="#452950"></path><path d="M 0 342.5230769230769 L 0 342.52
                L 37.11 359.65
                L 111.32000000000001 342.52 L 111.32000000000001 342.52
                L 148.43 359.65
                L 222.64000000000001 342.52 L 222.64000000000001 342.52
                L 285.64 359.65
                L 333.96000000000004 342.52 L 333.96000000000004 342.52
                L 372.96 359.65
                L 445.28000000000003 342.52 L 445.28000000000003 342.52
                L 513.28 359.65
                L 556.6 342.52  V 445.28 H 0 V 342.52 Z" fill="#33254e"></path><path d="M 0 376.77538461538467 L 0 376.78
                L 37.11 393.90
                L 111.32000000000001 376.78 L 111.32000000000001 376.78
                L 158.32 397.78
                L 222.64000000000001 376.78 L 222.64000000000001 376.78
                L 259.75 393.90
                L 333.96000000000004 376.78 L 333.96000000000004 376.78
                L 371.07 393.90
                L 445.28000000000003 376.78 L 445.28000000000003 376.78
                L 510.28 395.78
                L 556.6 376.78  V 445.28 H 0 V 376.78 Z" fill="#21214c"></path><path d="M 0 411.02769230769235 L 0 411.03
                L 66.00 445.03
                L 111.32000000000001 411.03 L 111.32000000000001 411.03
                L 155.32 442.03
                L 222.64000000000001 411.03 L 222.64000000000001 411.03
                L 259.75 428.15
                L 333.96000000000004 411.03 L 333.96000000000004 411.03
                L 408.96 428.15
                L 445.28000000000003 411.03 L 445.28000000000003 411.03
                L 482.39 444.03
                L 556.6 411.03  V 445.28 H 0 V 411.03 Z" fill="#0f1d4a"></path></svg>